<?xml version="1.0" encoding="utf-8"?>
<!-- Generator: Adobe Illustrator 21.1.0, SVG Export Plug-In . SVG Version: 6.00 Build 0)  -->
<svg version="1.1" id="Layer_1" xmlns="http://www.w3.org/2000/svg" xmlns:xlink="http://www.w3.org/1999/xlink" x="0px" y="0px"
	 viewBox="0 0 125 40" style="enable-background:new 0 0 125 40;" xml:space="preserve">
<style type="text/css">
	.st0{display:none;}
	.st1{display:inline;fill:#FFFFFF;}
	.st2{fill:#FF9900;}
</style>
<g id="bg" class="st0">
	<rect class="st1" width="125" height="40"/>
</g>
<g>
	<path class="st2" d="M73.2,30.2c-6.9,5.1-16.8,7.9-25.4,7.9c-12,0-22.8-4.5-31-12c-0.6-0.6-0.1-1.4,0.7-0.9
		c8.8,5.2,19.7,8.4,31,8.4c7.6,0,16-1.6,23.6-4.9C73.4,28.1,74.3,29.3,73.2,30.2z"/>
	<path class="st2" d="M76.1,26.9c-0.9-1.1-5.8-0.5-8-0.3c-0.7,0.1-0.8-0.5-0.2-0.9c3.9-2.8,10.4-2,11.1-1.1
		c0.8,0.9-0.2,7.5-3.9,10.6c-0.6,0.5-1.1,0.2-0.9-0.4C75.1,32.7,76.9,28,76.1,26.9z"/>
	<path d="M68.2,5.9V3.1c0-0.4,0.3-0.7,0.7-0.7l12,0c0.4,0,0.7,0.3,0.7,0.7l0,2.3c0,0.4-0.3,0.9-0.9,1.7l-6.2,9
		c2.3-0.1,4.8,0.3,6.8,1.5c0.5,0.3,0.6,0.7,0.6,1.1v2.9c0,0.4-0.4,0.9-0.9,0.6c-3.7-2-8.6-2.2-12.7,0c-0.4,0.2-0.9-0.2-0.9-0.6v-2.8
		c0-0.4,0-1.2,0.4-1.9l7.2-10.5l-6.3,0C68.5,6.6,68.2,6.3,68.2,5.9z"/>
	<path d="M24.4,22.9h-3.7c-0.3,0-0.6-0.3-0.7-0.6l0-19.1c0-0.4,0.3-0.7,0.7-0.7l3.4,0c0.4,0,0.6,0.3,0.7,0.6v2.5H25
		c0.9-2.4,2.6-3.5,4.8-3.5c2.3,0,3.7,1.1,4.7,3.5c0.9-2.4,2.9-3.5,5-3.5c1.5,0,3.2,0.6,4.2,2.1c1.2,1.6,0.9,3.9,0.9,6l0,12
		c0,0.4-0.3,0.7-0.7,0.7h-3.6c-0.4,0-0.7-0.3-0.7-0.7l0-10.1c0-0.8,0.1-2.8-0.1-3.6c-0.3-1.3-1.1-1.6-2.1-1.6
		c-0.9,0-1.8,0.6-2.2,1.6c-0.4,1-0.3,2.6-0.3,3.7v10.1c0,0.4-0.3,0.7-0.7,0.7h-3.6c-0.4,0-0.7-0.3-0.7-0.7l0-10.1
		c0-2.1,0.3-5.3-2.2-5.3c-2.6,0-2.5,3-2.5,5.3l0,10.1C25.1,22.6,24.8,22.9,24.4,22.9z"/>
	<path d="M91.9,2.1c5.4,0,8.4,4.7,8.4,10.8c0,5.8-3.2,10.4-8.4,10.4c-5.3,0-8.2-4.7-8.2-10.6C83.7,6.7,86.6,2.1,91.9,2.1z M92,6
		c-2.7,0-2.9,3.7-2.9,6.1c0,2.3,0,7.3,2.8,7.3c2.8,0,3-4,3-6.5c0-1.6-0.1-3.5-0.5-5.1C93.9,6.5,93.1,6,92,6z"/>
	<path d="M107.3,22.9h-3.6c-0.4,0-0.7-0.3-0.7-0.7l0-19.1c0-0.3,0.3-0.6,0.7-0.6l3.4,0c0.3,0,0.6,0.2,0.6,0.5V6h0.1
		c1-2.6,2.5-3.9,5-3.9c1.6,0,3.2,0.6,4.3,2.2c1,1.5,1,4.1,1,5.9v12c0,0.3-0.3,0.6-0.7,0.6h-3.7c-0.3,0-0.6-0.3-0.7-0.6V11.9
		c0-2.1,0.2-5.1-2.3-5.1c-0.9,0-1.7,0.6-2.1,1.5c-0.5,1.2-0.6,2.3-0.6,3.6v10.3C108,22.6,107.7,22.9,107.3,22.9z"/>
	<path d="M17.3,19.4c-0.7-0.9-1.4-1.7-1.4-3.4v-5.8c0-2.5,0.2-4.7-1.6-6.4c-1.4-1.4-3.7-1.9-5.5-1.9c-3.5,0-7.4,1.3-8.2,5.7
		C0.5,8.1,0.9,8.3,1.2,8.4l3.5,0.4c0.3,0,0.6-0.3,0.6-0.7c0.3-1.5,1.5-2.2,2.9-2.2c0.8,0,1.6,0.3,2.1,1c0.5,0.8,0.4,1.8,0.4,2.7V10
		c-2.1,0.2-4.9,0.4-6.9,1.3c-2.3,1-3.9,3.1-3.9,6.1c0,3.9,2.4,5.8,5.5,5.8c2.6,0,4-0.6,6-2.7c0.7,1,0.9,1.4,2.1,2.5
		c0.3,0.2,0.6,0.1,0.9-0.1l0,0c0.7-0.7,2.1-1.8,2.8-2.5C17.6,20.1,17.5,19.7,17.3,19.4z M10.1,17.7c-0.6,1-1.5,1.7-2.5,1.7
		c-1.4,0-2.2-1.1-2.2-2.7c0-3.2,2.8-3.7,5.4-3.7v0.8h0C10.8,15.2,10.8,16.4,10.1,17.7z"/>
	<path d="M65.1,19.4c-0.7-0.9-1.4-1.7-1.4-3.4v-5.8c0-2.5,0.2-4.7-1.6-6.4c-1.4-1.4-3.7-1.9-5.5-1.9c-3.5,0-7.4,1.3-8.2,5.7
		c-0.1,0.5,0.2,0.7,0.5,0.8l3.5,0.4c0.3,0,0.6-0.3,0.6-0.7c0.3-1.5,1.5-2.2,2.9-2.2c0.8,0,1.6,0.3,2.1,1c0.5,0.8,0.4,1.8,0.4,2.7V10
		c-2.1,0.2-4.9,0.4-6.9,1.3c-2.3,1-3.9,3.1-3.9,6.1c0,3.9,2.4,5.8,5.5,5.8c2.6,0,4-0.6,6-2.7c0.7,1,0.9,1.4,2.1,2.5
		c0.3,0.2,0.6,0.1,0.9-0.1l0,0c0.7-0.7,2.1-1.8,2.8-2.5C65.4,20.1,65.4,19.7,65.1,19.4z M58,17.7c-0.6,1-1.5,1.7-2.5,1.7
		c-1.4,0-2.2-1.1-2.2-2.7c0-3.2,2.8-3.7,5.4-3.7v0.8h0C58.6,15.2,58.7,16.4,58,17.7z"/>
</g>
</svg>
